<?xml version="1.0" encoding="UTF-8"?>
<svg width="483px" height="212px" viewBox="0 0 483 212" version="1.1" xmlns="http://www.w3.org/2000/svg" xmlns:xlink="http://www.w3.org/1999/xlink">
    <title>logo</title>
    <g id="Page-1" stroke="none" stroke-width="1" fill="none" fill-rule="evenodd">
        <g id="Home" transform="translate(-479.000000, -407.000000)" fill="#FAAF40">
            <g id="Group-6" transform="translate(479.000000, 406.000000)">
                <polygon id="Fill-1" points="72.5128443 52.9712526 72.5128443 107.903518 19.5163476 107.903518 19.5163476 52.9712526 -0.000108539326 52.9712526 -0.000108539326 157.966125 19.5163476 157.966125 19.5163476 126.012865 72.5128443 126.012865 72.5128443 157.966125 92.0271297 157.966125 92.0271297 52.9712526"></polygon>
                <g id="Group-5" transform="translate(134.588764, 0.643347)">
                    <path d="M2.60928539,209.431163 L12.0489506,209.431163 L12.0489506,199.974398 L2.60928539,199.974398 L2.60928539,209.431163 Z M63.1785708,110.019934 C63.1785708,99.0015306 66.6974157,89.7110357 73.7296787,82.1451888 C80.7651978,74.570648 89.7305461,70.7888112 100.622467,70.7888112 C111.517645,70.7888112 120.534007,74.619551 127.675894,82.3005918 C127.699773,82.3266735 127.720396,82.3549286 127.744274,82.3810102 L72.933,137.260026 C66.4532022,129.791985 63.1785708,120.826423 63.1785708,110.339434 L63.1785708,110.019934 Z M148.311391,100.400158 L148.311391,100.720745 C148.311391,111.728281 144.795802,121.025296 137.760283,128.594403 C130.72802,136.170031 121.762672,139.951867 110.867494,139.951867 C100.329411,139.951867 91.5507506,136.351515 84.5228292,129.164939 L139.287431,74.3337398 C145.287485,81.6257296 148.311391,90.3022194 148.311391,100.400158 L148.311391,100.400158 Z M199.416047,12.3811684 L208.855712,12.3811684 L208.855712,2.92657653 L199.416047,2.92657653 L199.416047,12.3811684 Z M14.5290742,199.247372 L70.7806652,142.925173 C81.3914697,152.88727 94.632182,157.906898 110.55056,157.906898 C127.368728,157.906898 141.279128,152.29174 152.278503,141.066857 C163.280049,129.840888 168.779737,116.287133 168.779737,100.400158 L168.779737,100.080658 C168.779737,84.5794745 163.577447,71.3571735 153.205429,60.3985408 L198.684492,14.8632704 L211.335836,14.8632704 L211.335836,0.443387755 L196.937009,0.443387755 L196.937009,13.1027602 L141.519,68.5892602 C130.777948,58.1087908 117.263717,52.8359541 100.940488,52.8359541 C84.1212337,52.8359541 70.2140899,58.4413316 59.2125438,69.6727347 C48.2120831,80.8943571 42.7102247,94.4535459 42.7102247,110.339434 L42.7102247,110.66002 C42.7102247,126.543735 48.1599843,140.042066 59.0486494,151.161536 L12.7750787,197.491209 L0.129161798,197.491209 L0.129161798,211.913265 L14.5290742,211.913265 L14.5290742,199.247372 Z" id="Fill-2"></path>
                    <path d="M299.698135,167.182939 C314.610353,167.182939 326.297868,162.915332 334.763935,154.390985 C343.22132,145.875332 347.453268,133.509378 347.453268,117.302904 L347.453268,54.2331689 L327.940068,54.2331689 L327.940068,118.253796 C327.940068,128.32022 325.479481,135.992567 320.563735,141.288225 C315.641477,146.582796 308.793731,149.230082 300.017241,149.230082 C291.236409,149.230082 284.358272,146.476296 279.389342,140.967638 C274.414985,135.467674 271.93052,127.63123 271.93052,117.45722 L271.93052,54.2331689 L252.416234,54.2331689 L252.416234,118.253796 C252.416234,134.139684 256.621048,146.273077 265.029589,154.633327 C273.442472,163.003358 284.993227,167.182939 299.698135,167.182939" id="Fill-4"></path>
                </g>
            </g>
        </g>
    </g>
</svg>